HIERARCHY
ROOT Hips
{
	OFFSET 0.00000 0.00000 0.00000
	CHANNELS 6 Xposition Yposition Zposition Zrotation Yrotation Xrotation 
	JOINT LHipJoint
	{
		OFFSET 0 0 0
		CHANNELS 3 Zrotation Yrotation Xrotation
		JOINT LeftUpLeg
		{
			OFFSET 1.55766 -1.60504 1.11378
			CHANNELS 3 Zrotation Yrotation Xrotation
			JOINT LeftLeg
			{
				OFFSET 2.29047 -6.29302 0.00000
				CHANNELS 3 Zrotation Yrotation Xrotation
				JOINT LeftFoot
				{
					OFFSET 2.52265 -6.93093 0.00000
					CHANNELS 3 Zrotation Yrotation Xrotation
					JOINT LeftToeBase
					{
						OFFSET 0.17633 -0.48446 2.02656
						CHANNELS 3 Zrotation Yrotation Xrotation
						End Site
						{
							OFFSET 0.00000 -0.00000 1.04989
						}
					}
				}
			}
		}
	}
	JOINT RHipJoint
	{
		OFFSET 0 0 0
		CHANNELS 3 Zrotation Yrotation Xrotation
		JOINT RightUpLeg
		{
			OFFSET -1.48599 -1.60504 1.11378
			CHANNELS 3 Zrotation Yrotation Xrotation
			JOINT RightLeg
			{
				OFFSET -2.27280 -6.24448 0.00000
				CHANNELS 3 Zrotation Yrotation Xrotation
				JOINT RightFoot
				{
					OFFSET -2.50834 -6.89161 0.00000
					CHANNELS 3 Zrotation Yrotation Xrotation
					JOINT RightToeBase
					{
						OFFSET -0.26967 -0.74090 2.08741
						CHANNELS 3 Zrotation Yrotation Xrotation
						End Site
						{
							OFFSET -0.00000 -0.00000 1.10614
						}
					}
				}
			}
		}
	}
	JOINT LowerBack
	{
		OFFSET 0 0 0
		CHANNELS 3 Zrotation Yrotation Xrotation
		JOINT Spine
		{
			OFFSET 0.06481 2.02437 -0.08472
			CHANNELS 3 Zrotation Yrotation Xrotation
			JOINT Spine1
			{
				OFFSET 0.00015 1.96711 0.18069
				CHANNELS 3 Zrotation Yrotation Xrotation
				JOINT Neck
				{
					OFFSET 0 0 0
					CHANNELS 3 Zrotation Yrotation Xrotation
					JOINT Neck1
					{
						OFFSET -0.29961 1.68293 -0.13041
						CHANNELS 3 Zrotation Yrotation Xrotation
						JOINT Head
						{
							OFFSET 0.59697 1.61501 -0.14669
							CHANNELS 3 Zrotation Yrotation Xrotation
							End Site
							{
								OFFSET 0.22973 1.74906 -0.10148
							}
						}
					}
				}
				JOINT LeftShoulder
				{
					OFFSET 0 0 0
					CHANNELS 3 Zrotation Yrotation Xrotation
					JOINT LeftArm
					{
						OFFSET 3.37968 1.02893 0.31147
						CHANNELS 3 Zrotation Yrotation Xrotation
						JOINT LeftForeArm
						{
							OFFSET 5.19807 -0.00000 -0.00000
							CHANNELS 3 Zrotation Yrotation Xrotation
							JOINT LeftHand
							{
								OFFSET 3.09370 -0.00000 -0.00000
								CHANNELS 3 Zrotation Yrotation Xrotation
								JOINT LeftFingerBase
								{
									OFFSET 0 0 0
									CHANNELS 3 Zrotation Yrotation Xrotation
									JOINT LeftHandIndex1
									{
										OFFSET 0.67263 -0.00000 -0.00000
										CHANNELS 3 Zrotation Yrotation Xrotation
										End Site
										{
											OFFSET 0.54229 -0.00000 -0.00000
										}
									}
								}
								JOINT LThumb
								{
									OFFSET 0 0 0
									CHANNELS 3 Zrotation Yrotation Xrotation
									End Site
									{
										OFFSET 0.55057 -0.00000 0.55057
									}
								}
							}
						}
					}
				}
				JOINT RightShoulder
				{
					OFFSET 0 0 0
					CHANNELS 3 Zrotation Yrotation Xrotation
					JOINT RightArm
					{
						OFFSET -3.38254 0.96355 -0.16120
						CHANNELS 3 Zrotation Yrotation Xrotation
						JOINT RightForeArm
						{
							OFFSET -5.45222 -0.00000 -0.00000
							CHANNELS 3 Zrotation Yrotation Xrotation
							JOINT RightHand
							{
								OFFSET -3.01284 -0.00000 -0.00000
								CHANNELS 3 Zrotation Yrotation Xrotation
								JOINT RightFingerBase
								{
									OFFSET 0 0 0
									CHANNELS 3 Zrotation Yrotation Xrotation
									JOINT RightHandIndex1
									{
										OFFSET -0.62230 -0.00000 -0.00000
										CHANNELS 3 Zrotation Yrotation Xrotation
										End Site
										{
											OFFSET -0.50171 -0.00000 -0.00000
										}
									}
								}
								JOINT RThumb
								{
									OFFSET 0 0 0
									CHANNELS 3 Zrotation Yrotation Xrotation
									End Site
									{
										OFFSET -0.50937 -0.00000 0.50937
									}
								}
							}
						}
					}
				}
			}
		}
	}
}
MOTION
Frames: 11
Frame Time: .0083333
-4.9839 15.8571 38.2618 0 0 0 0 0 0 -21 0 0 0 0 0 0 0 0 0 0 0 0 0 0 21 0 0 0 0 0 0 0 0 0 0 0 0 0 0 0 0 0 0 0 0 0 0 -16 0 0 21 0 0 11 0 0 0 -8 0 0 0 0 0 0 0 0 0 0 0 0 0 0 0 0 0 0 0 0 8 0 0 0 0 0 0 0 0 0 0 0 0 0 0 0 0 0
-4.9839 15.8571 38.2618 -177.6920 -2.6873 -166.7650 0.0000 0.0000 0.0000 -18.5633 -3.7677 -24.0011 2.7659 10.3062 29.9740 0.5707 -19.0039 -17.8987 0.0066 -0.5264 -1.4465 0.0000 0.0000 0.0000 21.5010 -0.8163 -19.0653 -1.6876 -8.1825 23.2698 0.0974 24.4467 -16.5860 -0.0670 1.6702 -4.5949 3.0013 3.4895 -8.3647 -1.1521 3.6005 -8.0126 -2.6520 1.2537 -3.3776 -31.8738 -3.6849 19.5384 42.1558 -14.3499 -6.9359 24.0271 -10.5869 0.5831 0.0000 0.0000 0.0000 -84.6370 13.1424 43.5106 17.6047 -27.6480 -4.3642 -0.0000 0.0000 -36.1616 14.3173 -8.8184 -2.2406 -7.1250 0.0000 -0.0000 -9.0485 20.9315 5.2839 0.0000 0.0000 0.0000 90.8365 -8.7188 15.5426 -13.1195 21.4620 -2.4968 0.0000 0.0000 25.2117 -8.3721 -1.3769 0.2026 7.1250 -0.0000 -0.0000 14.4316 -31.1653 5.0220
-4.9968 15.8516 38.2470 -177.7020 -2.7636 -166.7580 0.0000 0.0000 0.0000 -18.6023 -3.9418 -23.9182 2.7802 10.3305 30.0538 0.6055 -18.8921 -18.0948 0.0076 -0.5642 -1.5503 0.0000 0.0000 0.0000 21.4077 -0.3735 -18.8195 -1.6945 -8.1985 23.3188 -0.0383 23.7558 -17.0211 -0.0861 1.8931 -5.2103 2.9423 3.4179 -8.3337 -1.1101 3.5041 -8.0510 -2.5838 1.2048 -3.4475 -31.7934 -3.7721 20.5655 42.3831 -14.7042 -7.7763 24.2812 -10.8927 0.3434 0.0000 -0.0000 0.0000 -84.7092 13.3440 43.4414 17.6521 -27.7094 -4.3863 -0.0000 0.0000 -36.5264 14.5870 -8.9653 -2.3223 -7.1250 0.0000 -0.0000 -8.8506 20.7692 5.1984 0.0000 -0.0000 0.0000 90.7088 -8.8221 15.6589 -13.1318 21.4800 -2.5013 0.0000 0.0000 25.1133 -8.3875 -1.3915 0.2052 7.1250 -0.0000 -0.0000 14.4220 -31.1801 5.0131
-5.0109 15.8445 38.2314 -177.7430 -2.8022 -166.7600 0.0000 0.0000 0.0000 -18.6695 -4.2221 -23.7820 2.7966 10.3582 30.1447 0.6475 -18.6324 -18.2710 0.0084 -0.5906 -1.6230 0.0000 0.0000 0.0000 21.2686 0.1806 -18.5380 -1.7062 -8.2253 23.4005 -0.1851 22.9666 -17.4938 -0.1077 2.1162 -5.8270 2.8991 3.3778 -8.3040 -1.1234 3.4496 -8.0799 -2.5789 1.1761 -3.4997 -31.6837 -3.8413 21.5399 42.6661 -15.0433 -8.5811 24.5854 -11.2009 0.1206 0.0000 0.0000 0.0000 -84.6822 13.5225 43.3204 17.6840 -27.7507 -4.4011 -0.0000 0.0000 -36.5359 14.4694 -9.0800 -2.3320 -7.1250 0.0000 -0.0000 -8.9312 20.6579 5.2696 0.0000 0.0000 0.0000 90.6950 -8.9235 15.5835 -13.1747 21.5426 -2.5171 0.0000 0.0000 25.0632 -8.2731 -1.4308 0.2080 7.1250 -0.0000 -0.0000 14.5171 -31.2153 5.0354
-5.0249 15.8375 38.2171 -177.7430 -2.9145 -166.7670 0.0000 0.0000 0.0000 -18.6819 -4.5307 -23.6547 2.8144 10.3884 30.2438 0.6853 -18.4295 -18.4469 0.0095 -0.6278 -1.7251 0.0000 0.0000 0.0000 21.1791 0.8284 -18.2108 -1.7188 -8.2541 23.4886 -0.3394 22.0272 -17.9598 -0.1338 2.3573 -6.4942 2.8890 3.3029 -8.2258 -1.0958 3.3582 -8.0688 -2.5534 1.1332 -3.5392 -31.5556 -4.0433 22.2204 42.8549 -15.4620 -9.3040 24.7255 -11.5063 0.0080 -0.0000 0.0000 0.0000 -84.6956 13.5605 43.1611 17.6725 -27.7357 -4.3957 -0.0000 0.0000 -36.4579 14.5365 -8.9090 -2.2995 -7.1250 0.0000 -0.0000 -8.8884 20.8289 5.2090 -0.0000 0.0000 0.0000 90.6189 -8.9042 15.5451 -13.1923 21.5683 -2.5235 0.0000 0.0000 24.9765 -8.1901 -1.4149 0.2036 7.1250 -0.0000 -0.0000 14.5792 -31.1975 5.0647
-5.0390 15.8299 38.2025 -177.7530 -3.0004 -166.7760 0.0000 0.0000 0.0000 -18.7103 -4.8281 -23.5257 2.8337 10.4209 30.3509 0.7255 -18.2115 -18.6344 0.0104 -0.6580 -1.8083 0.0000 0.0000 0.0000 21.0804 1.4579 -17.9124 -1.7360 -8.2931 23.6079 -0.4808 21.1386 -18.4118 -0.1623 2.5958 -7.1555 2.8659 3.2352 -8.1590 -1.0712 3.2738 -8.0704 -2.5228 1.0928 -3.5857 -31.4225 -4.2145 22.9729 43.0485 -15.8525 -10.0485 24.8954 -11.8037 -0.1381 0.0000 -0.0000 0.0000 -84.7132 13.6376 43.0060 17.6659 -27.7272 -4.3927 -0.0000 0.0000 -36.3761 14.5439 -8.8494 -2.2855 -7.1250 0.0000 -0.0000 -8.8851 20.8893 5.1948 0.0000 -0.0000 0.0000 90.5424 -8.9303 15.5381 -13.2153 21.6018 -2.5320 0.0000 0.0000 24.9135 -8.1396 -1.4357 0.2053 7.1250 -0.0000 -0.0000 14.6218 -31.2164 5.0735
-5.0532 15.8217 38.1880 -177.7610 -3.0918 -166.7920 0.0000 0.0000 0.0000 -18.7358 -5.1472 -23.3911 2.8562 10.4585 30.4747 0.7671 -17.9827 -18.8299 0.0112 -0.6824 -1.8753 0.0000 0.0000 0.0000 20.9837 2.1367 -17.6061 -1.7577 -8.3420 23.7577 -0.6186 20.2024 -18.8553 -0.1953 2.8461 -7.8507 2.8452 3.1633 -8.0798 -1.0419 3.1861 -8.0624 -2.4891 1.0519 -3.6292 -31.2843 -4.4026 23.6555 43.2273 -16.2403 -10.7723 25.0406 -12.0907 -0.2671 -0.0000 0.0000 0.0000 -84.7323 13.6849 42.8407 17.6443 -27.6993 -4.3827 -0.0000 0.0000 -36.2183 14.5334 -8.7723 -2.2641 -7.1250 0.0000 -0.0000 -8.8951 20.9684 5.1846 -0.0000 0.0000 0.0000 90.4596 -8.9388 15.5395 -13.2369 21.6334 -2.5400 0.0000 0.0000 24.8492 -8.1054 -1.4729 0.2097 7.1250 -0.0000 -0.0000 14.6543 -31.2518 5.0726
-5.0677 15.8128 38.1735 -177.7720 -3.1861 -166.8150 0.0000 0.0000 0.0000 -18.7649 -5.4794 -23.2468 2.8802 10.4986 30.6070 0.8098 -17.7479 -19.0323 0.0118 -0.7018 -1.9285 0.0000 0.0000 0.0000 20.8855 2.8536 -17.3075 -1.7866 -8.4067 23.9565 -0.7495 19.2419 -19.2834 -0.2326 3.1041 -8.5686 2.8207 3.0858 -7.9850 -1.0067 3.0942 -8.0439 -2.4476 1.0105 -3.6709 -31.1438 -4.6047 24.2674 43.3902 -16.6197 -11.4759 25.1606 -12.3636 -0.3819 0.0000 -0.0000 0.0000 -84.7568 13.7055 42.6843 17.6123 -27.6578 -4.3678 -0.0000 0.0000 -36.0363 14.5397 -8.7038 -2.2476 -7.1250 0.0000 -0.0000 -8.8928 21.0378 5.1692 0.0000 -0.0000 0.0000 90.3636 -8.9290 15.5639 -13.2567 21.6622 -2.5473 0.0000 0.0000 24.7818 -8.0889 -1.5188 0.2158 7.1250 -0.0000 -0.0000 14.6744 -31.2962 5.0638
-5.0824 15.8030 38.1591 -177.7860 -3.2802 -166.8500 0.0000 0.0000 0.0000 -18.7996 -5.8227 -23.0908 2.9065 10.5421 30.7506 0.8538 -17.5054 -19.2438 0.0123 -0.7169 -1.9701 0.0000 0.0000 0.0000 20.7849 3.5993 -17.0255 -1.8249 -8.4914 24.2168 -0.8715 18.2743 -19.6920 -0.2739 3.3664 -9.3006 2.7928 3.0043 -7.8759 -0.9676 2.9999 -8.0137 -2.4005 0.9694 -3.7085 -31.0003 -4.8075 24.8284 43.5446 -16.9805 -12.1587 25.2690 -12.6208 -0.4909 0.0000 -0.0000 0.0000 -84.7822 13.7033 42.5469 17.5720 -27.6057 -4.3491 -0.0000 0.0000 -35.8532 14.5605 -8.6717 -2.2427 -7.1250 0.0000 -0.0000 -8.8790 21.0696 5.1545 0.0000 -0.0000 0.0000 90.2597 -8.8995 15.5987 -13.2734 21.6866 -2.5534 0.0000 0.0000 24.7187 -8.0848 -1.5573 0.2212 7.1250 -0.0000 -0.0000 14.6838 -31.3337 5.0535
-5.0973 15.7923 38.1450 -177.8070 -3.3723 -166.8920 0.0000 0.0000 0.0000 -18.8452 -6.1691 -22.9302 2.9346 10.5884 30.9040 0.8984 -17.2612 -19.4609 0.0129 -0.7323 -2.0125 0.0000 0.0000 0.0000 20.6788 4.3570 -16.7807 -1.8750 -8.6007 24.5540 -0.9824 17.3247 -20.0752 -0.3183 3.6268 -10.0291 2.7565 2.9192 -7.7492 -0.9273 2.9034 -7.9780 -2.3477 0.9284 -3.7504 -30.8595 -4.9971 25.3455 43.6961 -17.3114 -12.8115 25.3784 -12.8586 -0.5977 -0.0000 -0.0000 0.0000 -84.8038 13.6915 42.4382 17.5295 -27.5505 -4.3294 -0.0000 0.0000 -35.6970 14.6031 -8.6682 -2.2487 -7.1250 0.0000 -0.0000 -8.8484 21.0711 5.1360 -0.0000 -0.0000 0.0000 90.1501 -8.8573 15.6396 -13.2861 21.7050 -2.5581 0.0000 0.0000 24.6607 -8.0734 -1.5810 0.2242 7.1250 -0.0000 -0.0000 14.6964 -31.3565 5.0498
-5.1124 15.7807 38.1310 -177.8310 -3.4551 -166.9430 0.0000 0.0000 0.0000 -18.8980 -6.5126 -22.7656 2.9647 10.6377 31.0676 0.9438 -17.0148 -19.6854 0.0134 -0.7468 -2.0524 0.0000 0.0000 0.0000 20.5707 5.1143 -16.5883 -1.9397 -8.7394 24.9835 -1.0810 16.4186 -20.4292 -0.3650 3.8807 -10.7414 2.7152 2.8332 -7.6059 -0.8848 2.8082 -7.9335 -2.2901 0.8894 -3.7924 -30.7170 -5.1757 25.8156 43.8396 -17.6142 -13.4246 25.4806 -13.0771 -0.6998 0.0000 -0.0000 0.0000 -84.8239 13.6656 42.3538 17.4844 -27.4919 -4.3086 -0.0000 0.0000 -35.5846 14.6667 -8.7060 -2.2686 -7.1250 0.0000 -0.0000 -8.8016 21.0297 5.1165 0.0000 -0.0000 0.0000 90.0364 -8.7934 15.6775 -13.2930 21.7150 -2.5607 0.0000 0.0000 24.6181 -8.0479 -1.5917 0.2250 7.1250 -0.0000 -0.0000 14.7179 -31.3663 5.0541
